<?xml version="1.0" encoding="utf-8"?>
<!-- Generator: Adobe Illustrator 26.0.3, SVG Export Plug-In . SVG Version: 6.00 Build 0)  -->
<svg version="1.1" xmlns="http://www.w3.org/2000/svg" xmlns:xlink="http://www.w3.org/1999/xlink" x="0px" y="0px"
	 viewBox="0 0 964 321" style="enable-background:new 0 0 964 321;" xml:space="preserve">
<style type="text/css">
	.st0{fill:#FFFFFF;}
	.st1{fill:#6A9C45;}
	.st2{fill:#53863D;}
	.st3{fill:#95AA3B;}
	.st4{fill:#2F5D2E;}
	.st5{fill:#24421D;}
	.st6{fill:#325D2D;}
	.st7{fill:#6B9A44;}
	.st8{fill:#3D2314;}
	.st9{fill:#714B29;}
	.st10{fill:#8FA941;}
	.st11{fill:#8A5D31;}
	.st12{fill:#7D5330;}
	.st13{fill:#411E12;}
	.st14{fill:#71492D;}
	.st15{fill:#3E2216;}
	.st16{fill:#6E4625;}
	.st17{fill:#7C421C;}
	.st18{fill:#52311B;}
</style>
<g id="Layer_1">
	<g>
		<g>
			<path class="st0" d="M344.8,36h3.3v59.7h0.4l35.7-33h4.4l-40.5,37.2V115h-3.3V36z M363.4,83.7l2.4-2.4l26.5,33.7h-3.9L363.4,83.7
				z"/>
			<path class="st0" d="M434,65.8h-26.9v-3.1h30.2V115H434V65.8z M430.1,44.8c0-2.8,2-4.6,4.4-4.6s4.4,1.8,4.4,4.6s-2,4.6-4.4,4.6
				S430.1,47.6,430.1,44.8z"/>
			<path class="st0" d="M471.7,89c0-17.5,12.7-27.6,28.2-27.6c8.9,0,14.4,3.9,18.7,8.1l-2.2,2.4c-4.5-4.4-9.7-7.4-16.5-7.4
				c-14.7,0-24.7,10.1-24.7,24.5s9.8,24.3,24.7,24.3c7.3,0,13.3-3.3,18.2-7.9l2,2.4c-5.2,5-11.8,8.5-20.1,8.5
				C483.7,116.3,471.7,106.3,471.7,89z"/>
			<path class="st0" d="M541.7,36h3.3v59.7h0.4l35.7-33h4.4l-40.5,37.2V115h-3.3V36z M560.3,83.7l2.4-2.4l26.5,33.7h-3.9L560.3,83.7
				z"/>
			<path class="st0" d="M602.5,108l2-2.6c5.7,4.6,12.6,7.9,24.1,7.9c11.4,0,17.3-5.2,17.3-11.2c0-5-1.8-9.2-19.2-12.7
				c-13.1-2.6-21-6.8-21-14.4c0-7.2,6-13.6,19.9-13.6c6.7,0,14.8,2.6,19.7,6.3l-2,2.6c-4.6-3.5-10.6-5.9-17.9-5.9
				c-12.4,0-16.2,5-16.2,10.3c0,5.9,5.7,9,17.9,11.5c18.4,3.8,22.3,8,22.3,15.6s-7.7,14.4-21,14.4
				C617.4,116.3,608.6,112.4,602.5,108z"/>
			<path class="st0" d="M684.1,95.8v-30h-16.2v-2.6l16.2-0.4l0.4-17.5h2.8v17.5H716v3.1h-28.7v30.4c0,10.5,2.8,17.1,15.1,17.1
				c5.7,0,10.1-1.1,14.4-2.8l1.1,2.6c-4.8,2-9.4,3.3-15.8,3.3C688.2,116.3,684.1,108,684.1,95.8z"/>
			<path class="st0" d="M734.8,102.2c0-11.7,12-17.2,40.9-19.8c0-9.2-3.5-17.9-16.2-17.9c-8.3,0-16.3,4.4-20.3,7.4l-1.8-2.6
				c3.7-2.8,12.9-7.9,22.3-7.9c13.9,0,19.2,9.2,19.2,19.7V115h-2.8l-0.4-8.1h-0.2c-6.1,4.9-14.4,9.4-22.3,9.4
				C744,116.3,734.8,112.2,734.8,102.2z M775.7,103.2V85.3c-28.2,2.6-37.4,7.9-37.4,16.8c0,8.1,7.7,11.2,15.1,11.2
				C760.4,113.3,767.9,109.9,775.7,103.2z"/>
			<path class="st0" d="M808.5,62.7h2.8l0.4,13.1h0.2c5.7-8.3,14.3-14.4,25-14.4c3.4,0,7.2,0.4,10.6,2.2l-1.1,3.1
				c-3.9-1.4-5.8-2-10-2c-9.1,0-17.2,4.6-24.8,16.8V115h-3.3V62.7z"/>
			<path class="st0" d="M881,95.8v-30h-16.2v-2.6l16.2-0.4l0.4-17.5h2.8v17.5h28.7v3.1h-28.7v30.4c0,10.5,2.8,17.1,15.1,17.1
				c5.7,0,10.1-1.1,14.4-2.8l1.1,2.6c-4.8,2-9.4,3.3-15.8,3.3C885.1,116.3,881,108,881,95.8z"/>
			<path class="st1" d="M345.5,272.7c0-6.3,5.1-13.9,13.9-19.5v-0.7c-4.1-1.9-8.5-6.1-8.5-12.9c0-5.1,3.4-10.8,9.8-15.2v-0.7
				c-5.1-4.4-9.5-11.2-9.5-21c0-16.3,13.2-28.8,29.5-28.8c4.4,0,7.8,0.7,10.8,2h33.9v4.7h-25.7c5.4,5.1,10.5,12.7,10.5,22
				c0,16.3-13.2,28.4-29.5,28.4c-5.1,0-10.8-1.4-15.9-4.1c-5.1,3-8.5,7.4-8.5,12c0,8.3,7.8,12,19.3,12h20.8
				c20.5,0,28.9,5.1,28.9,17.9c0,13.5-16.3,27.4-42,27.4C357.7,296.5,345.5,286.7,345.5,272.7z M420,269.5c0-9.6-7.3-12.9-22.2-12.9
				h-20.5c-3.7,0-8.5-0.3-12.4-1.5c-10.5,5.6-14.1,12-14.1,18.3c0,10.3,10.2,18.5,31.5,18.5C405.9,291.8,420,280.3,420,269.5z
				 M404.7,202.8c0-13.9-10.8-24-24-24c-13.2,0-24,10.2-24,24s10.8,23.7,24,23.7C393.9,226.5,404.7,216.6,404.7,202.8z"/>
			<path class="st1" d="M481.6,176h4.4l0.7,20.3h0.3c8.8-12.9,22.2-22.3,38.8-22.3c5.2,0,11.2,0.7,16.4,3.4l-1.7,4.7
				c-6.1-2.2-9-3-15.4-3c-14.1,0-26.6,7.1-38.4,26.1v51.8h-5.1V176z"/>
			<path class="st1" d="M588.5,216.6c0-26.4,19.3-42.7,40.3-42.7c21.7,0,35.9,13.9,35.9,37.2c0,1.7,0,3.4-0.3,5.4h-74.1v-4.7H663
				l-3,2.7c0-24.4-12.9-35.9-31.1-35.9c-17.6,0-34.9,13.9-34.9,37.6c0,24.4,17.3,37.9,36.9,37.9c11.5,0,20.5-3.7,28.1-9.1l2.4,4.4
				c-7.1,4.6-15.7,9.5-30.5,9.5C607.8,259,588.5,243.1,588.5,216.6z"/>
			<path class="st1" d="M710.8,216.6c0-26.4,19.3-42.7,40.3-42.7c21.7,0,35.9,13.9,35.9,37.2c0,1.7,0,3.4-0.3,5.4h-74.1v-4.7h72.8
				l-3,2.7c0-24.4-12.9-35.9-31.1-35.9c-17.6,0-34.9,13.9-34.9,37.6c0,24.4,17.3,37.9,36.9,37.9c11.5,0,20.5-3.7,28.1-9.1l2.4,4.4
				c-7.1,4.6-15.7,9.5-30.5,9.5C730.1,259,710.8,243.1,710.8,216.6z"/>
			<path class="st1" d="M838,176h4.4l0.7,16.3h0.7c9.6-10.5,19.3-18.3,32.5-18.3c19.8,0,29.5,10.3,29.5,32.5v50.4h-5.1v-49.8
				c0-19.1-7.3-28.4-24.4-28.4c-12.2,0-20.7,6.4-33.2,19.6v58.6H838V176z"/>
		</g>
	</g>
	<g>
		<g id="XMLID_00000170995486500819092660000008172314524420385453_">
			<g>
				<rect x="289.2" y="269.4" class="st2" width="12.2" height="12.2"/>
				<rect x="289.2" y="257.2" class="st3" width="12.2" height="12.2"/>
				<rect x="277" y="269.4" class="st4" width="12.2" height="12.2"/>
				<rect x="277" y="257.2" class="st2" width="12.2" height="12.2"/>
				<rect x="277" y="245" class="st3" width="12.2" height="12.2"/>
				<rect x="264.8" y="269.4" class="st4" width="12.2" height="12.2"/>
				<rect x="264.8" y="257.2" class="st2" width="12.2" height="12.2"/>
				<rect x="264.8" y="245" class="st3" width="12.2" height="12.2"/>
				<rect x="252.6" y="269.4" class="st4" width="12.2" height="12.2"/>
				<rect x="252.6" y="257.2" class="st2" width="12.2" height="12.2"/>
				<rect x="252.6" y="245" class="st2" width="12.2" height="12.2"/>
				<rect x="252.6" y="232.7" class="st3" width="12.2" height="12.2"/>
				<rect x="240.3" y="269.4" class="st4" width="12.2" height="12.2"/>
				<rect x="240.3" y="257.2" class="st2" width="12.2" height="12.2"/>
				<rect x="240.3" y="245" class="st4" width="12.2" height="12.2"/>
				<rect x="240.3" y="232.7" class="st3" width="12.2" height="12.2"/>
				<rect x="240.3" y="110.4" class="st2" width="12.2" height="12.2"/>
				<rect x="240.3" y="98.2" class="st2" width="12.2" height="12.2"/>
				<rect x="228.1" y="269.4" class="st4" width="12.2" height="12.2"/>
				<rect x="228.1" y="257.2" class="st4" width="12.2" height="12.2"/>
				<rect x="228.1" y="245" class="st4" width="12.2" height="12.2"/>
				<rect x="228.1" y="232.7" class="st3" width="12.2" height="12.2"/>
				<rect x="228.1" y="159.4" class="st5" width="12.2" height="12.2"/>
				<rect x="228.1" y="147.1" class="st5" width="12.2" height="12.3"/>
				<rect x="228.1" y="134.8" class="st6" width="12.2" height="12.2"/>
				<rect x="228.1" y="110.4" class="st2" width="12.2" height="12.2"/>
				<rect x="228.1" y="98.2" class="st2" width="12.2" height="12.2"/>
				<rect x="228.1" y="85.9" class="st2" width="12.2" height="12.2"/>
				<rect x="215.9" y="269.4" class="st4" width="12.2" height="12.2"/>
				<rect x="215.9" y="257.2" class="st4" width="12.2" height="12.2"/>
				<rect x="215.9" y="245" class="st4" width="12.2" height="12.2"/>
				<rect x="215.9" y="232.7" class="st2" width="12.2" height="12.2"/>
				<rect x="215.9" y="220.5" class="st3" width="12.2" height="12.2"/>
				<rect x="215.9" y="147.1" class="st5" width="12.2" height="12.3"/>
				<rect x="215.9" y="134.8" class="st6" width="12.2" height="12.2"/>
				<rect x="215.9" y="122.6" class="st6" width="12.2" height="12.2"/>
				<rect x="215.9" y="110.4" class="st2" width="12.2" height="12.2"/>
				<rect x="215.9" y="98.2" class="st1" width="12.2" height="12.2"/>
				<rect x="215.9" y="85.9" class="st2" width="12.2" height="12.2"/>
				<rect x="215.9" y="73.7" class="st2" width="12.2" height="12.2"/>
				<rect x="203.6" y="269.4" class="st2" width="12.2" height="12.2"/>
				<rect x="203.6" y="257.2" class="st4" width="12.2" height="12.2"/>
				<rect x="203.6" y="245" class="st4" width="12.2" height="12.2"/>
				<rect x="203.6" y="232.7" class="st3" width="12.2" height="12.2"/>
				<rect x="203.6" y="220.5" class="st7" width="12.2" height="12.2"/>
				<rect x="203.6" y="159.4" class="st5" width="12.2" height="12.2"/>
				<rect x="203.6" y="147.1" class="st5" width="12.2" height="12.3"/>
				<rect x="203.6" y="134.8" class="st6" width="12.2" height="12.2"/>
				<rect x="203.6" y="122.6" class="st6" width="12.2" height="12.2"/>
				<rect x="203.6" y="110.4" class="st2" width="12.2" height="12.2"/>
				<rect x="203.6" y="98.2" class="st1" width="12.2" height="12.2"/>
				<rect x="203.6" y="85.9" class="st1" width="12.2" height="12.2"/>
				<rect x="203.6" y="61.5" class="st2" width="12.2" height="12.2"/>
				<rect x="191.4" y="269.4" class="st2" width="12.2" height="12.2"/>
				<rect x="191.4" y="257.2" class="st2" width="12.2" height="12.2"/>
				<rect x="191.4" y="245" class="st4" width="12.2" height="12.2"/>
				<rect x="191.4" y="232.7" class="st3" width="12.2" height="12.2"/>
				<rect x="191.4" y="220.5" class="st7" width="12.2" height="12.2"/>
				<rect x="191.4" y="159.4" class="st5" width="12.2" height="12.2"/>
				<rect x="191.4" y="147.1" class="st6" width="12.2" height="12.3"/>
				<rect x="191.4" y="134.8" class="st6" width="12.2" height="12.2"/>
				<rect x="191.4" y="122.6" class="st2" width="12.2" height="12.2"/>
				<rect x="191.4" y="110.4" class="st2" width="12.2" height="12.2"/>
				<rect x="191.4" y="98.2" class="st1" width="12.2" height="12.2"/>
				<rect x="191.4" y="85.9" class="st1" width="12.2" height="12.2"/>
				<rect x="191.4" y="73.7" class="st2" width="12.2" height="12.2"/>
				<rect x="191.4" y="61.5" class="st2" width="12.2" height="12.2"/>
				<rect x="191.4" y="49.2" class="st2" width="12.2" height="12.2"/>
				<rect x="179.2" y="269.4" class="st2" width="12.2" height="12.2"/>
				<rect x="179.2" y="257.2" class="st2" width="12.2" height="12.2"/>
				<rect x="179.2" y="245" class="st2" width="12.2" height="12.2"/>
				<rect x="179.2" y="232.7" class="st8" width="12.2" height="12.2"/>
				<rect x="179.2" y="220.5" class="st7" width="12.2" height="12.2"/>
				<rect x="179.2" y="171.6" class="st9" width="12.2" height="12.2"/>
				<rect x="179.2" y="159.4" class="st5" width="12.2" height="12.2"/>
				<rect x="179.2" y="147.1" class="st5" width="12.2" height="12.3"/>
				<rect x="179.2" y="134.8" class="st6" width="12.2" height="12.2"/>
				<rect x="179.2" y="122.6" class="st6" width="12.2" height="12.2"/>
				<rect x="179.2" y="110.4" class="st2" width="12.2" height="12.2"/>
				<rect x="179.2" y="98.2" class="st2" width="12.2" height="12.2"/>
				<rect x="179.2" y="85.9" class="st2" width="12.2" height="12.2"/>
				<rect x="179.2" y="73.7" class="st2" width="12.2" height="12.2"/>
				<rect x="179.2" y="61.5" class="st10" width="12.2" height="12.2"/>
				<rect x="179.2" y="49.2" class="st10" width="12.2" height="12.2"/>
				<rect x="179.2" y="37" class="st10" width="12.2" height="12.2"/>
				<rect x="166.9" y="269.4" class="st4" width="12.3" height="12.2"/>
				<rect x="166.9" y="257.2" class="st2" width="12.3" height="12.2"/>
				<rect x="166.9" y="245" class="st2" width="12.3" height="12.2"/>
				<rect x="166.9" y="232.7" class="st8" width="12.3" height="12.2"/>
				<rect x="166.9" y="220.5" class="st8" width="12.3" height="12.2"/>
				<rect x="166.9" y="183.8" class="st9" width="12.3" height="12.2"/>
				<rect x="166.9" y="159.4" class="st11" width="12.3" height="12.2"/>
				<rect x="166.9" y="147.1" class="st5" width="12.3" height="12.3"/>
				<rect x="166.9" y="134.8" class="st6" width="12.3" height="12.2"/>
				<rect x="166.9" y="122.6" class="st6" width="12.3" height="12.2"/>
				<rect x="166.9" y="110.4" class="st2" width="12.3" height="12.2"/>
				<rect x="166.9" y="98.2" class="st2" width="12.3" height="12.2"/>
				<rect x="166.9" y="85.9" class="st2" width="12.3" height="12.2"/>
				<rect x="166.9" y="73.7" class="st2" width="12.3" height="12.2"/>
				<rect x="166.9" y="61.5" class="st10" width="12.3" height="12.2"/>
				<rect x="166.9" y="49.2" class="st10" width="12.3" height="12.2"/>
				<rect x="166.9" y="37" class="st10" width="12.3" height="12.2"/>
				<rect x="154.7" y="269.4" class="st4" width="12.2" height="12.2"/>
				<rect x="154.7" y="257.2" class="st4" width="12.2" height="12.2"/>
				<rect x="154.7" y="245" class="st2" width="12.2" height="12.2"/>
				<rect x="154.7" y="232.7" class="st12" width="12.2" height="12.2"/>
				<rect x="154.7" y="220.5" class="st13" width="12.2" height="12.2"/>
				<rect x="154.7" y="208.3" class="st14" width="12.2" height="12.2"/>
				<rect x="154.7" y="196" class="st14" width="12.2" height="12.2"/>
				<rect x="154.7" y="183.8" class="st15" width="12.2" height="12.2"/>
				<rect x="154.7" y="171.6" class="st16" width="12.2" height="12.2"/>
				<rect x="154.7" y="159.4" class="st16" width="12.2" height="12.2"/>
				<rect x="154.7" y="147.1" class="st5" width="12.2" height="12.3"/>
				<rect x="154.7" y="134.8" class="st6" width="12.2" height="12.2"/>
				<rect x="154.7" y="122.6" class="st2" width="12.2" height="12.2"/>
				<rect x="154.7" y="110.4" class="st2" width="12.2" height="12.2"/>
				<rect x="154.7" y="98.2" class="st2" width="12.2" height="12.2"/>
				<rect x="154.7" y="85.9" class="st2" width="12.2" height="12.2"/>
				<rect x="154.7" y="73.7" class="st2" width="12.2" height="12.2"/>
				<rect x="154.7" y="61.5" class="st2" width="12.2" height="12.2"/>
				<rect x="154.7" y="49.2" class="st10" width="12.2" height="12.2"/>
				<rect x="154.7" y="37" class="st10" width="12.2" height="12.2"/>
				<rect x="142.4" y="269.4" class="st4" width="12.2" height="12.2"/>
				<rect x="142.4" y="257.2" class="st4" width="12.2" height="12.2"/>
				<rect x="142.4" y="245" class="st4" width="12.2" height="12.2"/>
				<rect x="142.4" y="232.7" class="st17" width="12.2" height="12.2"/>
				<rect x="142.4" y="220.5" class="st18" width="12.2" height="12.2"/>
				<rect x="142.4" y="208.3" class="st14" width="12.2" height="12.2"/>
				<rect x="142.4" y="196" class="st14" width="12.2" height="12.2"/>
				<rect x="142.4" y="183.8" class="st14" width="12.2" height="12.2"/>
				<rect x="142.4" y="171.6" class="st16" width="12.2" height="12.2"/>
				<rect x="142.4" y="159.4" class="st16" width="12.2" height="12.2"/>
				<rect x="142.4" y="147.1" class="st5" width="12.2" height="12.3"/>
				<rect x="142.4" y="134.8" class="st6" width="12.2" height="12.2"/>
				<rect x="142.4" y="122.6" class="st2" width="12.2" height="12.2"/>
				<rect x="142.4" y="110.4" class="st2" width="12.2" height="12.2"/>
				<rect x="142.4" y="98.2" class="st1" width="12.2" height="12.2"/>
				<rect x="142.4" y="85.9" class="st2" width="12.2" height="12.2"/>
				<rect x="142.4" y="73.7" class="st2" width="12.2" height="12.2"/>
				<rect x="142.4" y="61.5" class="st2" width="12.2" height="12.2"/>
				<rect x="142.4" y="49.2" class="st2" width="12.2" height="12.2"/>
				<rect x="130.2" y="269.4" class="st4" width="12.2" height="12.2"/>
				<rect x="130.2" y="257.2" class="st2" width="12.2" height="12.2"/>
				<rect x="130.2" y="245" class="st4" width="12.2" height="12.2"/>
				<rect x="130.2" y="232.7" class="st8" width="12.2" height="12.2"/>
				<rect x="130.2" y="220.5" class="st7" width="12.2" height="12.2"/>
				<rect x="130.2" y="147.1" class="st5" width="12.2" height="12.3"/>
				<rect x="130.2" y="134.8" class="st6" width="12.2" height="12.2"/>
				<rect x="130.2" y="122.6" class="st2" width="12.2" height="12.2"/>
				<rect x="130.2" y="110.4" class="st2" width="12.2" height="12.2"/>
				<rect x="130.2" y="98.2" class="st1" width="12.2" height="12.2"/>
				<rect x="130.2" y="85.9" class="st1" width="12.2" height="12.2"/>
				<rect x="130.2" y="73.7" class="st10" width="12.2" height="12.2"/>
				<rect x="130.2" y="61.5" class="st10" width="12.2" height="12.2"/>
				<rect x="130.2" y="49.2" class="st10" width="12.2" height="12.2"/>
				<rect x="118" y="269.4" class="st4" width="12.2" height="12.2"/>
				<rect x="118" y="257.2" class="st4" width="12.2" height="12.2"/>
				<rect x="118" y="245" class="st4" width="12.2" height="12.2"/>
				<rect x="118" y="232.7" class="st2" width="12.2" height="12.2"/>
				<rect x="118" y="220.5" class="st7" width="12.2" height="12.2"/>
				<rect x="118" y="159.4" class="st11" width="12.2" height="12.2"/>
				<rect x="118" y="147.1" class="st5" width="12.2" height="12.3"/>
				<rect x="118" y="134.8" class="st6" width="12.2" height="12.2"/>
				<rect x="118" y="122.6" class="st2" width="12.2" height="12.2"/>
				<rect x="118" y="110.4" class="st2" width="12.2" height="12.2"/>
				<rect x="118" y="98.2" class="st1" width="12.2" height="12.2"/>
				<rect x="118" y="85.9" class="st1" width="12.2" height="12.2"/>
				<rect x="118" y="73.7" class="st10" width="12.2" height="12.2"/>
				<rect x="118" y="61.5" class="st10" width="12.2" height="12.2"/>
				<rect x="105.7" y="269.4" class="st4" width="12.2" height="12.2"/>
				<rect x="105.7" y="257.2" class="st4" width="12.2" height="12.2"/>
				<rect x="105.7" y="245" class="st2" width="12.2" height="12.2"/>
				<rect x="105.7" y="232.7" class="st3" width="12.2" height="12.2"/>
				<rect x="105.7" y="220.5" class="st7" width="12.2" height="12.2"/>
				<rect x="105.7" y="159.4" class="st5" width="12.2" height="12.2"/>
				<rect x="105.7" y="147.1" class="st11" width="12.2" height="12.3"/>
				<rect x="105.7" y="134.8" class="st6" width="12.2" height="12.2"/>
				<rect x="105.7" y="122.6" class="st2" width="12.2" height="12.2"/>
				<rect x="105.7" y="110.4" class="st2" width="12.2" height="12.2"/>
				<rect x="105.7" y="98.2" class="st2" width="12.2" height="12.2"/>
				<rect x="105.7" y="85.9" class="st2" width="12.2" height="12.2"/>
				<rect x="105.7" y="73.7" class="st10" width="12.2" height="12.2"/>
				<rect x="105.7" y="61.5" class="st10" width="12.2" height="12.2"/>
				<rect x="93.5" y="269.4" class="st4" width="12.2" height="12.2"/>
				<rect x="93.5" y="257.2" class="st4" width="12.2" height="12.2"/>
				<rect x="93.5" y="245" class="st2" width="12.2" height="12.2"/>
				<rect x="93.5" y="232.7" class="st3" width="12.2" height="12.2"/>
				<rect x="93.5" y="171.6" class="st5" width="12.2" height="12.2"/>
				<rect x="93.5" y="159.4" class="st5" width="12.2" height="12.2"/>
				<rect x="93.5" y="147.1" class="st5" width="12.2" height="12.3"/>
				<rect x="93.5" y="134.8" class="st6" width="12.2" height="12.2"/>
				<rect x="93.5" y="122.6" class="st6" width="12.2" height="12.2"/>
				<rect x="93.5" y="110.4" class="st2" width="12.2" height="12.2"/>
				<rect x="93.5" y="98.2" class="st2" width="12.2" height="12.2"/>
				<rect x="93.5" y="85.9" class="st2" width="12.2" height="12.2"/>
				<rect x="93.5" y="73.7" class="st2" width="12.2" height="12.2"/>
				<rect x="81.3" y="269.4" class="st4" width="12.2" height="12.2"/>
				<rect x="81.3" y="257.2" class="st2" width="12.2" height="12.2"/>
				<rect x="81.3" y="245" class="st2" width="12.2" height="12.2"/>
				<rect x="81.3" y="232.7" class="st3" width="12.2" height="12.2"/>
				<rect x="81.3" y="147.1" class="st5" width="12.2" height="12.3"/>
				<rect x="81.3" y="134.8" class="st5" width="12.2" height="12.2"/>
				<rect x="81.3" y="122.6" class="st6" width="12.2" height="12.2"/>
				<rect x="81.3" y="110.4" class="st6" width="12.2" height="12.2"/>
				<rect x="81.3" y="98.2" class="st2" width="12.2" height="12.2"/>
				<rect x="69.1" y="269.4" class="st4" width="12.2" height="12.2"/>
				<rect x="69.1" y="257.2" class="st2" width="12.2" height="12.2"/>
				<rect x="69.1" y="245" class="st4" width="12.2" height="12.2"/>
				<rect x="56.8" y="269.4" class="st4" width="12.2" height="12.2"/>
				<rect x="56.8" y="257.2" class="st2" width="12.2" height="12.2"/>
				<rect x="56.8" y="245" class="st3" width="12.2" height="12.2"/>
				<rect x="44.6" y="269.4" class="st4" width="12.2" height="12.2"/>
				<rect x="44.6" y="257.2" class="st4" width="12.2" height="12.2"/>
				<rect x="44.6" y="245" class="st3" width="12.2" height="12.2"/>
			</g>
		</g>
	</g>
</g>
<g id="Layer_2">
</g>
</svg>
